<svg width="572" height="444" viewBox="0 0 572 444" fill="none" xmlns="http://www.w3.org/2000/svg">
<g clip-path="url(#clip0_94352_1151)">
<rect x="-7" width="588" height="444" fill="#F3F4F6"/>
<g opacity="0.5" clip-path="url(#clip1_94352_1151)">
<path d="M-50.6318 328.56C-50.6318 323.79 -46.7649 319.923 -41.9949 319.923H75.4852C80.2552 319.923 84.1221 323.79 84.1221 328.56V398.571C84.1221 401.751 81.5442 404.329 78.3642 404.329H-44.8739C-48.0539 404.329 -50.6318 401.751 -50.6318 398.571V328.56Z" fill="#0C7AFF"/>
<path fill-rule="evenodd" clip-rule="evenodd" d="M-129.363 305C-134.133 305 -138 308.867 -138 313.637V392.242C-138 392.253 -138 392.264 -138 392.275V487.42C-138 490.6 -135.422 493.178 -132.242 493.178H88.7297C91.9098 493.178 94.4877 490.6 94.4877 487.42V341.97C94.4877 338.79 91.9098 336.212 88.7297 336.212H-44V313.637C-44 308.867 -47.8669 305 -52.6369 305H-129.363Z" fill="#3692FF"/>
</g>
<g opacity="0.5" clip-path="url(#clip2_94352_1151)">
<path d="M566.368 328.56C566.368 323.79 570.235 319.923 575.005 319.923H692.485C697.255 319.923 701.122 323.79 701.122 328.56V398.571C701.122 401.751 698.544 404.329 695.364 404.329H572.126C568.946 404.329 566.368 401.751 566.368 398.571V328.56Z" fill="#0C7AFF"/>
<path fill-rule="evenodd" clip-rule="evenodd" d="M487.637 305C482.867 305 479 308.867 479 313.637V392.242C479 392.253 479 392.264 479 392.275V487.42C479 490.6 481.578 493.178 484.758 493.178H705.73C708.91 493.178 711.488 490.6 711.488 487.42V341.97C711.488 338.79 708.91 336.212 705.73 336.212H573V313.637C573 308.867 569.133 305 564.363 305H487.637Z" fill="#3692FF"/>
</g>
</g>
<g clip-path="url(#clip3_94352_1151)">
<path d="M251.087 328.194C251.087 323.424 254.954 319.557 259.724 319.557H377.204C381.974 319.557 385.841 323.424 385.841 328.194V398.206C385.841 401.386 383.263 403.964 380.083 403.964H256.845C253.665 403.964 251.087 401.386 251.087 398.206V328.194Z" fill="#0C7AFF"/>
<path fill-rule="evenodd" clip-rule="evenodd" d="M172.356 304.634C167.586 304.634 163.719 308.501 163.719 313.271V391.876C163.719 391.887 163.719 391.898 163.719 391.909V487.055C163.719 490.235 166.297 492.812 169.477 492.812H390.449C393.629 492.812 396.207 490.235 396.207 487.055V341.604C396.207 338.424 393.629 335.846 390.449 335.846H257.719V313.271C257.719 308.501 253.852 304.634 249.082 304.634H172.356Z" fill="#3692FF"/>
</g>
<path d="M67.8369 123.251C67.8369 116.623 73.2095 111.251 79.8369 111.251H196.832V242.546H79.8369C73.2095 242.546 67.8369 237.174 67.8369 230.546V123.251Z" fill="#8698FF"/>
<path d="M115.496 144.408C115.426 143.797 115.464 143.177 115.607 142.578C116.755 137.762 123.277 136.979 125.476 141.393C125.75 141.942 125.926 142.536 125.995 143.147L132.159 197.314C132.489 200.215 130.407 202.85 127.507 203.198C124.608 203.546 121.99 201.476 121.66 198.575L115.496 144.408Z" fill="#E02D2C"/>
<path fill-rule="evenodd" clip-rule="evenodd" d="M121.699 133.837C123.676 137.781 121.117 142.53 116.725 143.07C116.033 143.154 115.547 142.49 115.712 141.81L118.445 130.578C118.626 129.835 119.632 129.713 119.973 130.393L121.699 133.837Z" fill="white"/>
<path fill-rule="evenodd" clip-rule="evenodd" d="M120.614 131.686C121.035 132.525 120.491 133.536 119.557 133.65C118.621 133.765 117.866 132.911 118.091 131.993L118.437 130.578C118.619 129.836 119.623 129.713 119.964 130.392L120.614 131.686Z" fill="#E02D2C"/>
<path d="M139.878 143.146C139.947 142.535 140.123 141.941 140.397 141.392C142.598 136.979 149.119 137.764 150.266 142.58C150.409 143.18 150.446 143.799 150.377 144.411L144.194 198.575C143.863 201.477 141.244 203.545 138.345 203.196C135.446 202.847 133.364 200.212 133.695 197.311L139.878 143.146Z" fill="#292424"/>
<path fill-rule="evenodd" clip-rule="evenodd" d="M148.241 134.495C149.271 138.731 145.787 142.661 141.474 142.13C140.696 142.034 140.341 141.173 140.691 140.475L145.758 130.376C146.1 129.696 147.105 129.819 147.286 130.562L148.241 134.495Z" fill="white"/>
<path fill-rule="evenodd" clip-rule="evenodd" d="M147.685 131.674C147.91 132.593 147.155 133.446 146.219 133.331C145.285 133.216 144.741 132.205 145.163 131.366L145.813 130.074C146.154 129.395 147.158 129.518 147.339 130.261L147.685 131.674Z" fill="#292424"/>
<path d="M109.709 173.831C109.709 167.203 115.082 161.831 121.709 161.831H156.104V220.55H121.709C115.082 220.55 109.709 215.177 109.709 208.55V173.831Z" fill="#5F76FF"/>
<path d="M109.709 188.726C109.709 182.943 114.397 178.255 120.18 178.255H156.104V199.197H120.18C114.397 199.197 109.709 194.509 109.709 188.726Z" fill="#FFD875"/>
<path d="M226.373 123.251C226.373 116.623 231.745 111.251 238.373 111.251H355.367V242.546H238.373C231.745 242.546 226.373 237.174 226.373 230.546V123.251Z" fill="#B9D9FF"/>
<path d="M260.816 149.783C260.816 143.461 265.72 138.224 272.028 137.809L307.614 135.465C314.537 135.009 320.402 140.501 320.402 147.439V203.964C320.402 210.591 315.03 215.964 308.402 215.964H272.816C266.189 215.964 260.816 210.591 260.816 203.964V149.783Z" fill="#F3F4F6"/>
<path d="M260.816 151.054C260.816 144.232 266.497 138.782 273.313 139.065L309.6 140.568C316.029 140.834 321.104 146.123 321.104 152.558V206.518C321.104 213.396 315.334 218.867 308.465 218.501L272.178 216.569C265.808 216.229 260.816 210.965 260.816 204.586V151.054Z" fill="#4E93EF"/>
<path d="M296.918 146.907C296.918 143.124 300.066 140.1 303.845 140.252C307.417 140.396 310.238 143.333 310.238 146.907V154.497C310.238 157.043 307.45 158.607 305.278 157.28C304.234 156.643 302.922 156.643 301.879 157.28C299.706 158.607 296.918 157.043 296.918 154.497V146.907Z" fill="white"/>
<path d="M379.985 123.251C379.985 116.623 385.357 111.251 391.985 111.251H508.98V242.546H391.985C385.357 242.546 379.985 237.174 379.985 230.546V123.251Z" fill="#FFB9E3"/>
<path d="M437.879 179.78C438.079 179.112 439.561 177.775 443.886 177.775C448.211 177.775 449.893 179.112 450.193 179.78" stroke="#FF46C0" stroke-width="3.84902"/>
<path d="M426.459 169.13C432.585 169.13 437.195 173.632 437.375 179.035V179.378C437.374 182.281 436.191 184.793 434.202 186.526C433.97 186.728 433.799 186.942 433.676 187.126C432.511 188.045 430.122 190.014 427.577 192.116C424.39 194.747 420.787 197.726 418.447 199.62C418.155 199.844 417.623 199.845 417.332 199.621C414.9 197.653 411.042 194.453 407.747 191.704C406.093 190.324 404.586 189.062 403.479 188.132C402.346 187.181 401.743 186.67 401.721 186.653C399.576 184.644 398.405 182.05 398.405 179.378V179.038C398.581 173.898 403.356 169.339 409.32 169.339C410.841 169.339 413.16 170.283 414.553 171.775C414.526 171.746 414.536 171.752 414.657 171.92C414.735 172.03 414.932 172.313 415.151 172.569C415.54 173.023 416.84 174.373 418.871 173.872C420.183 173.547 420.852 172.603 421.095 172.229C421.221 172.035 421.338 171.824 421.37 171.768C421.382 171.746 421.39 171.729 421.397 171.718C421.912 171.025 422.767 170.357 423.803 169.856C424.866 169.342 425.858 169.13 426.459 169.13ZM433.145 188.928C433.145 188.882 433.146 188.817 433.152 188.738C433.148 188.799 433.145 188.863 433.145 188.928Z" stroke="#FF68CC" stroke-width="5.77353"/>
<path d="M477.686 169.13C483.812 169.13 488.422 173.632 488.601 179.035V179.378C488.601 182.281 487.418 184.793 485.428 186.526C485.196 186.728 485.025 186.942 484.903 187.126C483.737 188.045 481.348 190.014 478.803 192.116C475.617 194.747 472.013 197.726 469.673 199.62C469.382 199.844 468.849 199.845 468.558 199.621C466.126 197.653 462.268 194.453 458.973 191.704C457.32 190.324 455.813 189.062 454.706 188.132C453.573 187.181 452.97 186.67 452.948 186.653C450.803 184.644 449.631 182.05 449.631 179.378V179.038C449.808 173.898 454.583 169.339 460.546 169.339C462.068 169.339 464.386 170.283 465.78 171.775C465.753 171.746 465.763 171.752 465.883 171.92C465.962 172.03 466.159 172.313 466.377 172.569C466.766 173.023 468.066 174.373 470.097 173.872C471.41 173.547 472.079 172.603 472.322 172.229C472.448 172.035 472.564 171.824 472.596 171.768C472.609 171.746 472.617 171.729 472.624 171.718C473.139 171.025 473.993 170.357 475.03 169.856C476.092 169.342 477.085 169.13 477.686 169.13ZM484.372 188.928C484.372 188.882 484.373 188.817 484.378 188.738C484.375 188.799 484.372 188.863 484.372 188.928Z" stroke="#FF68CC" stroke-width="5.77353"/>
<path d="M399.906 148.111C400.227 146.204 402.966 146.204 403.287 148.111C403.377 148.647 403.716 149.108 404.201 149.355L404.71 149.614C406.785 150.669 406.785 153.634 404.71 154.69L404.201 154.949C403.716 155.195 403.377 155.656 403.287 156.192C402.966 158.099 400.227 158.099 399.906 156.192C399.816 155.656 399.477 155.195 398.993 154.949L398.483 154.69C396.408 153.634 396.408 150.669 398.483 149.614L398.993 149.355C399.477 149.108 399.816 148.647 399.906 148.111Z" fill="white"/>
<path d="M416.409 141.006C416.608 139.81 418.327 139.81 418.526 141.006C418.581 141.34 418.791 141.628 419.092 141.784L419.42 141.953C420.725 142.626 420.725 144.492 419.42 145.165L419.092 145.334C418.791 145.49 418.581 145.778 418.526 146.112C418.327 147.308 416.608 147.308 416.409 146.112C416.354 145.778 416.144 145.49 415.843 145.334L415.515 145.165C414.211 144.492 414.211 142.626 415.515 141.953L415.843 141.784C416.144 141.628 416.354 141.34 416.409 141.006Z" fill="white"/>
<path d="M403.39 271.173C399.816 265.619 401.374 258.145 406.868 254.48L494.759 391.089C489.264 394.754 481.913 393.223 478.34 387.668L403.39 271.173Z" fill="#374151"/>
<path fill-rule="evenodd" clip-rule="evenodd" d="M411.159 261.144C413.53 264.828 412.497 269.79 408.854 272.223L405.577 274.411C405.536 274.439 405.481 274.427 405.455 274.385L403.393 271.18C401.319 267.957 400.972 264.088 402.12 260.691C403.532 256.509 408.791 257.462 411.159 261.144Z" fill="#3692FF"/>
<path d="M406.358 275.749C405.913 275.058 406.107 274.128 406.79 273.672L415.447 267.894L417.056 270.396L408.399 276.174C407.716 276.63 406.802 276.44 406.358 275.749Z" fill="#111827"/>
<defs>
<clipPath id="clip0_94352_1151">
<path d="M-7 12C-7 5.37258 -1.62742 0 5 0H572V444H4.99999C-1.62743 444 -7 438.627 -7 432V12Z" fill="white"/>
</clipPath>
<clipPath id="clip1_94352_1151">
<rect width="293" height="162" fill="white" transform="translate(-166 282)"/>
</clipPath>
<clipPath id="clip2_94352_1151">
<rect width="293" height="162" fill="white" transform="translate(451 282)"/>
</clipPath>
<clipPath id="clip3_94352_1151">
<path d="M139.719 293.634C139.719 287.007 145.092 281.634 151.719 281.634H428.235V444H151.719C145.092 444 139.719 438.627 139.719 432V293.634Z" fill="white"/>
</clipPath>
</defs>
</svg>
